<?xml version="1.0" standalone="no"?>
<!DOCTYPE svg PUBLIC "-//W3C//DTD SVG 20010904//EN"
 "http://www.w3.org/TR/2001/REC-SVG-20010904/DTD/svg10.dtd">
<svg version="1.0" xmlns="http://www.w3.org/2000/svg"
 width="420.000000pt" height="431.000000pt" viewBox="0 0 420.000000 431.000000"
 preserveAspectRatio="xMidYMid meet">

<g transform="translate(0.000000,431.000000) scale(0.100000,-0.100000)"
fill="#000000" stroke="none">
<path d="M1282 4220 c-8 -19 -15 -77 -18 -129 -2 -52 -9 -112 -15 -134 -10
-37 -14 -170 -8 -292 1 -33 4 -16 10 51 4 55 17 180 29 277 12 97 20 196 18
219 l-3 43 -13 -35z"/>
<path d="M1049 4093 c-1 -21 -3 -83 -6 -138 -8 -183 -8 -343 0 -351 9 -10 27
14 27 36 0 13 -1 13 -11 0 -10 -15 -7 176 7 398 4 63 2 92 -5 92 -6 0 -12 -17
-12 -37z"/>
<path d="M1486 4040 c-11 -36 -19 -76 -18 -90 2 -14 -6 -51 -17 -83 -11 -32
-18 -70 -15 -85 3 -15 -4 -72 -15 -126 -25 -117 -26 -165 -6 -192 13 -17 14
-13 15 46 1 62 12 143 60 430 25 148 23 191 -4 100z"/>
<path d="M1091 3944 c0 -11 3 -14 6 -6 3 7 2 16 -1 19 -3 4 -6 -2 -5 -13z"/>
<path d="M883 3875 c0 -22 2 -30 4 -17 2 12 2 30 0 40 -3 9 -5 -1 -4 -23z"/>
<path d="M826 3851 c-4 -30 -3 -58 1 -62 5 -5 6 -35 2 -67 -3 -31 -4 -61 0
-67 3 -5 8 -28 12 -50 4 -22 7 26 7 110 1 163 -10 228 -22 136z"/>
<path d="M1301 3844 c0 -11 3 -14 6 -6 3 7 2 16 -1 19 -3 4 -6 -2 -5 -13z"/>
<path d="M1081 3824 c0 -11 3 -14 6 -6 3 7 2 16 -1 19 -3 4 -6 -2 -5 -13z"/>
<path d="M874 3660 c0 -58 1 -81 3 -52 2 28 2 76 0 105 -2 28 -3 5 -3 -53z"/>
<path d="M1072 3715 c0 -16 2 -22 5 -12 2 9 2 23 0 30 -3 6 -5 -1 -5 -18z"/>
<path d="M2171 3658 c-19 -94 -82 -171 -226 -278 l-70 -52 -6 34 c-4 18 -7 25
-8 16 -1 -22 -23 -33 -96 -48 -33 -7 -73 -22 -90 -33 -41 -28 -159 -131 -220
-192 -37 -37 -86 -68 -185 -118 -159 -79 -182 -82 -255 -33 -28 18 -79 44
-115 56 -36 13 -77 32 -92 42 -63 43 -101 185 -117 438 -5 93 -9 113 -9 65 -2
-99 15 -297 34 -383 9 -40 29 -99 46 -130 27 -53 28 -58 12 -67 -60 -34 -93
-78 -124 -163 -119 -327 -229 -805 -265 -1145 -28 -274 -21 -332 67 -497 90
-169 142 -235 371 -463 l218 -219 54 -166 c29 -92 56 -194 60 -227 4 -33 9
-68 11 -77 5 -17 73 -18 1245 -18 681 0 1239 2 1239 4 0 21 -232 602 -268 670
-75 144 -176 233 -314 280 -11 3 -18 15 -18 30 0 37 -60 118 -115 153 -55 36
-55 36 -89 75 -16 18 -38 29 -70 33 l-47 7 45 48 c77 82 121 160 180 323 17
46 27 53 71 48 34 -3 59 7 73 29 13 21 12 21 -18 -1 -27 -21 -32 -22 -46 -7
-14 14 -13 25 14 119 17 57 33 125 37 151 7 51 41 102 75 113 13 4 20 15 20
30 0 58 -52 33 -99 -47 l-31 -53 -1 83 c-1 45 -2 88 -2 95 -1 6 5 50 12 96 26
160 -8 410 -72 537 -14 27 -28 72 -32 99 -15 107 -79 205 -192 295 -37 30
-105 90 -150 135 -46 44 -92 89 -103 100 -12 11 -69 71 -127 133 -104 111
-144 142 -181 142 -14 0 -21 -13 -31 -62z m-422 -392 c-2 -2 -41 -29 -87 -60
-60 -40 -78 -49 -67 -32 17 26 76 69 115 85 26 10 47 14 39 7z m-305 -333 c-4
-27 -21 -74 -38 -107 -28 -53 -31 -56 -37 -34 -3 14 -14 37 -24 51 l-17 26 59
55 c32 31 59 55 61 56 2 0 0 -21 -4 -47z m1321 -27 c88 -43 122 -83 157 -184
18 -55 23 -88 23 -182 0 -63 -4 -137 -8 -163 -7 -40 -11 -47 -25 -41 -9 4
-107 9 -217 11 -259 4 -332 -11 -356 -74 -8 -22 -12 -23 -131 -23 l-123 0 -17
30 c-32 57 -69 65 -298 65 -113 0 -226 -3 -251 -7 l-46 -7 -13 76 c-24 151
-10 275 44 382 34 66 73 96 165 125 78 25 80 25 387 20 182 -3 336 -1 374 5
36 5 109 8 162 7 88 -3 103 -6 173 -40z m-1429 -768 c4 -66 3 -118 -2 -117 -5
0 -24 24 -42 52 l-34 52 17 115 c10 63 22 126 28 140 10 22 12 16 19 -50 4
-41 10 -128 14 -192z m537 195 c-7 -2 -19 -2 -25 0 -7 3 -2 5 12 5 14 0 19 -2
13 -5z m690 0 c-7 -2 -19 -2 -25 0 -7 3 -2 5 12 5 14 0 19 -2 13 -5z m-580
-38 c49 -18 60 -30 71 -80 5 -24 4 -26 -4 -12 -6 9 -18 17 -26 17 -9 0 -30 11
-47 24 -113 84 -289 68 -382 -35 -18 -21 -36 -35 -39 -31 -3 3 -6 -3 -6 -14 0
-14 -3 -15 -9 -6 -6 10 -17 2 -44 -28 l-37 -40 0 55 c0 30 5 75 12 99 18 70
45 76 293 71 127 -3 182 -8 218 -20z m915 9 c12 -3 25 -17 28 -30 3 -13 9 -24
13 -24 4 0 8 -19 10 -41 1 -23 2 -45 3 -48 0 -3 0 -22 -1 -41 l-1 -34 -51 49
c-51 51 -56 40 -11 -25 13 -19 26 -47 29 -62 3 -16 12 -28 19 -28 10 0 11 -6
5 -22 -12 -32 -73 -47 -216 -53 -66 -3 -142 -8 -168 -10 -32 -3 -46 -1 -41 7
4 7 -7 9 -34 6 -22 -2 -39 -1 -36 1 2 3 -9 10 -26 17 -35 15 -48 44 -54 117
-3 39 -2 43 3 17 6 -30 9 -32 15 -15 39 100 72 142 138 169 49 21 141 20 184
0 42 -20 102 -88 113 -129 l8 -30 12 29 c16 39 7 60 -43 100 -90 74 -177 92
-286 60 -60 -18 -94 -37 -128 -72 l-23 -24 3 36 c1 20 6 37 10 37 4 1 12 2 17
3 16 2 25 16 11 16 -21 0 -2 14 23 17 12 1 51 7 87 12 69 10 350 7 388 -5z
m-1010 -49 c20 -9 47 -26 60 -38 30 -28 72 -109 72 -139 0 -19 2 -20 10 -8 5
8 10 25 10 38 0 12 4 22 9 22 9 0 6 -69 -5 -104 -10 -31 -48 -73 -62 -68 -7 2
-12 0 -12 -5 0 -5 -16 -7 -36 -5 -26 3 -35 1 -30 -7 6 -9 -9 -10 -56 -7 -35 3
-110 8 -168 11 -175 9 -203 18 -213 71 -3 19 -1 22 9 13 10 -8 14 -3 20 25 11
64 66 112 77 69 3 -14 7 -11 16 12 21 51 62 96 105 116 51 23 143 25 194 4z
m434 -41 c4 -3 2 -20 -3 -37 -10 -36 17 -183 38 -205 7 -7 34 -23 60 -34 43
-20 66 -22 213 -22 91 -1 193 3 228 7 l62 8 0 -34 c0 -37 -15 -57 -42 -57 -10
0 -18 -4 -18 -10 0 -5 15 -10 34 -10 39 0 49 16 46 78 -3 52 -1 59 10 40 26
-43 -26 -233 -106 -390 -39 -77 -64 -109 -143 -188 -100 -99 -309 -256 -389
-293 -63 -29 -160 -29 -222 0 -40 19 -279 197 -370 276 -129 112 -270 407
-270 564 0 48 2 54 15 43 11 -9 13 -23 9 -50 -8 -48 9 -80 41 -80 31 0 31 7 0
32 -17 13 -25 29 -25 49 l0 30 63 -8 c34 -4 139 -8 232 -8 152 0 175 3 217 22
55 25 73 51 83 117 4 27 12 59 18 73 8 17 7 27 -1 35 -7 7 -12 22 -12 35 0 23
2 23 113 23 63 0 116 -3 119 -6z m-1039 -196 c8 -18 18 -55 22 -82 3 -27 20
-90 36 -140 16 -50 29 -92 29 -93 0 -1 -9 -7 -19 -13 -16 -8 -26 -5 -52 17
-26 22 -30 24 -21 7 18 -35 40 -47 74 -41 47 7 64 -6 94 -71 72 -157 98 -206
138 -256 l44 -54 -39 -17 c-21 -10 -44 -24 -50 -31 -8 -10 -20 -6 -58 22 -27
18 -68 43 -92 53 -64 29 -112 84 -160 184 l-42 89 11 131 c14 168 42 327 58
327 6 0 18 -15 27 -32z m819 -1184 c104 -27 184 -15 317 47 46 21 87 39 92 39
13 0 1 -39 -25 -83 -34 -59 -101 -126 -191 -193 -43 -31 -80 -65 -82 -75 -7
-26 -19 -24 -27 4 -4 12 -32 42 -62 67 -31 25 -76 68 -100 96 -42 48 -114 160
-114 176 0 4 31 -9 70 -28 38 -20 93 -42 122 -50z m118 -569 c0 -8 -7 -15 -15
-15 -8 0 -15 7 -15 15 0 8 7 15 15 15 8 0 15 -7 15 -15z m0 -200 c0 -8 -7 -15
-15 -15 -8 0 -15 7 -15 15 0 8 7 15 15 15 8 0 15 -7 15 -15z"/>
<path d="M1710 2495 c-71 -20 -154 -67 -158 -90 -5 -22 12 -19 113 20 74 28
65 28 285 12 29 -2 35 1 35 18 0 43 -173 68 -275 40z"/>
<path d="M2497 2496 c-64 -14 -83 -27 -73 -51 5 -13 14 -16 39 -11 141 26 227
17 325 -31 42 -21 55 -24 65 -14 29 30 -126 105 -238 115 -33 3 -86 -1 -118
-8z"/>
<path d="M2550 2253 c-32 -12 -80 -68 -86 -101 -7 -38 9 -104 30 -121 18 -15
214 20 227 41 15 22 10 82 -9 117 -29 55 -105 85 -162 64z m10 -58 c17 -20 5
-45 -20 -45 -11 0 -23 7 -26 15 -6 15 11 45 26 45 4 0 13 -7 20 -15z"/>
<path d="M1755 2246 c-48 -21 -68 -51 -72 -109 -2 -28 0 -58 5 -66 13 -18 151
-42 174 -30 27 14 41 11 34 -8 -6 -14 -2 -13 15 4 30 30 39 122 15 158 -38 58
-109 79 -171 51z m25 -51 c18 -21 5 -45 -25 -45 -40 0 -34 54 6 59 4 1 12 -6
19 -14z"/>
<path d="M2035 1914 c-9 -15 -12 -23 -6 -20 11 7 35 46 28 46 -3 0 -12 -12
-22 -26z"/>
<path d="M2360 1934 c0 -14 21 -42 35 -48 11 -4 9 3 -7 24 -22 30 -28 35 -28
24z"/>
<path d="M2331 1807 c-1 -16 -6 -37 -11 -48 -25 -45 -117 -63 -185 -35 -27 12
-36 23 -45 57 -9 31 -14 39 -21 28 -26 -42 2 -119 53 -140 50 -21 137 -17 178
7 47 27 66 81 46 127 l-14 32 -1 -28z"/>
<path d="M2568 1618 c-2 -19 -15 -26 -78 -42 -109 -27 -460 -29 -572 -3 -46
11 -77 23 -75 30 1 6 -8 13 -20 15 -13 2 -23 0 -23 -3 0 -9 33 -47 95 -109 30
-30 79 -63 125 -85 72 -35 79 -36 186 -36 110 0 111 0 196 42 80 40 109 65
192 164 7 9 19 18 27 21 20 7 1 28 -26 28 -17 0 -25 -6 -27 -22z m-248 -120
c0 -5 -61 -8 -135 -7 -74 1 -135 5 -135 10 0 4 61 7 135 7 74 -1 135 -6 135
-10z m-127 -105 c-7 -2 -21 -2 -30 0 -10 3 -4 5 12 5 17 0 24 -2 18 -5z m75 0
c-10 -2 -28 -2 -40 0 -13 2 -5 4 17 4 22 1 32 -1 23 -4z"/>
<path d="M2415 1379 c-33 -22 -87 -48 -120 -59 -58 -20 -58 -20 -15 -14 58 8
119 37 167 79 49 44 42 43 -32 -6z"/>
<path d="M1953 1393 c27 -32 128 -81 178 -88 l44 -6 -57 19 c-31 11 -74 30
-95 43 -21 12 -49 30 -63 38 -25 15 -25 15 -7 -6z"/>
<path d="M682 3680 c0 -14 2 -19 5 -12 2 6 2 18 0 25 -3 6 -5 1 -5 -13z"/>
</g>
</svg>
